# xmcd
#
# Track frame offsets:
#	150
#	11197
#	22833
#	35476
#	47766
#	57819
#	68083
#	78814
#	91168
#	102304
#	114233
#	126311
#	136198
#	147584
#	155811
#
# Disc length: 2178 seconds
#
# Revision: 1
# Processed by: cddbd v1.4PL0 Copyright (c) Steve Scherf et al.
# Submitted via: audiograbber 1.80
#
DISCID=c308800f
DTITLE=Johnny Cash - falsom prison blues
DYEAR=1900
DGENRE=
TTITLE0=Cry Cry Cry
TTITLE1=So Dog-gone Lonesome
TTITLE2=Falsom Prison Blues
TTITLE3=I Walk The Line
TTITLE4=Get Rhythm
TTITLE5=There You Go
TTITLE6=Train Of Love
TTITLE7=Next In Line
TTITLE8=Don't Make Me Go
TTITLE9=Home Of The Blues
TTITLE10=Give Me Love To Rose
TTITLE11=Ballad Of A Teenage Queen
TTITLE12=Big River
TTITLE13=Guess Things Happen That Way
TTITLE14=Come In Stranger
EXTD=
EXTT0=
EXTT1=
EXTT2=
EXTT3=
EXTT4=
EXTT5=
EXTT6=
EXTT7=
EXTT8=
EXTT9=
EXTT10=
EXTT11=
EXTT12=
EXTT13=
EXTT14=
PLAYORDER=
